<svg width="35" height="35" viewBox="0 0 35 35" fill="none" xmlns="http://www.w3.org/2000/svg">
<path fill-rule="evenodd" clip-rule="evenodd" d="M21.0314 32.2113C21.0314 30.9504 20.0508 29.9282 18.8411 29.9282H16.1589C15.578 29.9282 15.0209 30.1688 14.6101 30.5969C14.1993 31.0251 13.9686 31.6058 13.9686 32.2113C13.9686 33.4721 14.9492 34.4943 16.1589 34.4943H18.8411C20.0508 34.4943 21.0314 33.4721 21.0314 32.2113ZM4.60476 26.3242C4.97062 26.3534 5.41324 26.3701 5.85785 26.343C6.09472 27.595 6.68315 28.7563 7.5615 29.6719C8.72758 30.8872 10.3091 31.57 11.9581 31.57H12.7939C12.757 31.7802 12.7381 31.9947 12.7381 32.2113C12.7381 32.4302 12.757 32.6446 12.7933 32.8525H11.9581C9.98272 32.8525 8.08821 32.0346 6.69143 30.5788C5.5771 29.4172 4.85229 27.9255 4.60476 26.3242ZM3.97886 24.9595C3.0074 24.7888 2.10342 24.3074 1.39774 23.5718C0.502783 22.639 0 21.3738 0 20.0546V17.0233C0 15.7041 0.502783 14.4388 1.39774 13.506C2.29271 12.5732 3.50656 12.0491 4.77224 12.0491H5.0899C5.59768 5.36877 10.9599 0.112305 17.5 0.112305C24.0401 0.112305 29.4023 5.36877 29.9101 12.0491H30.2278C31.4934 12.0491 32.7073 12.5732 33.6023 13.506C34.4972 14.4388 35 15.7041 35 17.0233V20.0546C35 21.3738 34.4972 22.639 33.6023 23.5718C32.7073 24.5047 31.4934 25.0288 30.2278 25.0288H28.8195C28.2354 25.0288 27.762 24.5352 27.762 23.9265V13.0886C27.762 7.1812 23.1675 2.39236 17.5 2.39236C11.8325 2.39236 7.23803 7.1812 7.23803 13.0886V23.9265C7.23803 24.3563 7.00198 24.7288 6.65759 24.9105C5.70958 25.2534 4.23938 25.0054 3.97886 24.9595Z" fill="white"/>
</svg>
